HIERARCHY
ROOT Hips
{
	OFFSET 0.000000 0.000000 0.000000
	CHANNELS 6 Xposition Yposition Zposition Zrotation Yrotation Xrotation 
	JOINT LHipJoint
	{
		OFFSET 0.000000 0.000000 0.000000
		CHANNELS 3 Zrotation Yrotation Xrotation
		JOINT LeftUpLeg
		{
			OFFSET 1.363060 -1.794630 0.839290
			CHANNELS 3 Zrotation Yrotation Xrotation
			JOINT LeftLeg
			{
				OFFSET 2.448110 -6.726130 0.000000
				CHANNELS 3 Zrotation Yrotation Xrotation
				JOINT LeftFoot
				{
					OFFSET 2.562200 -7.039590 0.000000
					CHANNELS 3 Zrotation Yrotation Xrotation
					JOINT LeftToeBase
					{
						OFFSET 0.157640 -0.433110 2.322550
						CHANNELS 3 Zrotation Yrotation Xrotation
						End Site
						{
							OFFSET 0.000000 0.000000 0.000000
						}
					}
				}
			}
		}
	}
	JOINT RHipJoint
	{
		OFFSET 0.000000 0.000000 0.000000
		CHANNELS 3 Zrotation Yrotation Xrotation
		JOINT RightUpLeg
		{
			OFFSET -1.305520 -1.794630 0.839290
			CHANNELS 3 Zrotation Yrotation Xrotation
			JOINT RightLeg
			{
				OFFSET -2.542530 -6.985550 0.000000
				CHANNELS 3 Zrotation Yrotation Xrotation
				JOINT RightFoot
				{
					OFFSET -2.568260 -7.056230 0.000000
					CHANNELS 3 Zrotation Yrotation Xrotation
					JOINT RightToeBase
					{
						OFFSET -0.164730 -0.452590 2.363150
						CHANNELS 3 Zrotation Yrotation Xrotation
						End Site
						{
							OFFSET 0.000000 0.000000 0.000000
						}
					}
				}
			}
		}
	}
	JOINT LowerBack
	{
		OFFSET 0.000000 0.000000 0.000000
		CHANNELS 3 Zrotation Yrotation Xrotation
		JOINT Spine
		{
			OFFSET 0.028270 2.035590 -0.193380
			CHANNELS 3 Zrotation Yrotation Xrotation
			JOINT Spine1
			{
				OFFSET 0.056720 2.048850 -0.042750
				CHANNELS 3 Zrotation Yrotation Xrotation
				JOINT Neck
				{
					OFFSET 0.000000 0.000000 0.000000
					CHANNELS 3 Zrotation Yrotation Xrotation
					JOINT Neck1
					{
						OFFSET -0.054170 1.746240 0.172020
						CHANNELS 3 Zrotation Yrotation Xrotation
						JOINT Head
						{
							OFFSET 0.104070 1.761360 -0.123970
							CHANNELS 3 Zrotation Yrotation Xrotation
							End Site
							{
								OFFSET 0.000000 0.000000 0.000000
							}
						}
					}
				}
				JOINT LeftShoulder
				{
					OFFSET 0.000000 0.000000 0.000000
					CHANNELS 3 Zrotation Yrotation Xrotation
					JOINT LeftArm
					{
						OFFSET 3.362410 1.200890 -0.311210
						CHANNELS 3 Zrotation Yrotation Xrotation
						JOINT LeftForeArm
						{
							OFFSET 4.983000 -0.000000 -0.000000
							CHANNELS 3 Zrotation Yrotation Xrotation
							JOINT LeftHand
							{
								OFFSET 3.483560 -0.000000 -0.000000
								CHANNELS 3 Zrotation Yrotation Xrotation
								JOINT LeftFingerBase
								{
									OFFSET 0.000000 0.000000 0.000000
									CHANNELS 3 Zrotation Yrotation Xrotation
									JOINT LeftHandIndex1
									{
										OFFSET 0.715260 -0.000000 -0.000000
										CHANNELS 3 Zrotation Yrotation Xrotation
										End Site
										{
											OFFSET 0.000000 0.000000 0.000000
										}
									}
								}
								JOINT LThumb
								{
									OFFSET 0.000000 0.000000 0.000000
									CHANNELS 3 Zrotation Yrotation Xrotation
									End Site
									{
										OFFSET 0.000000 0.000000 0.000000
									}
								}
							}
						}
					}
				}
				JOINT RightShoulder
				{
					OFFSET 0.000000 0.000000 0.000000
					CHANNELS 3 Zrotation Yrotation Xrotation
					JOINT RightArm
					{
						OFFSET -3.136600 1.374050 -0.404650
						CHANNELS 3 Zrotation Yrotation Xrotation
						JOINT RightForeArm
						{
							OFFSET -5.241900 -0.000000 -0.000000
							CHANNELS 3 Zrotation Yrotation Xrotation
							JOINT RightHand
							{
								OFFSET -3.444170 -0.000000 -0.000000
								CHANNELS 3 Zrotation Yrotation Xrotation
								JOINT RightFingerBase
								{
									OFFSET 0.000000 0.000000 0.000000
									CHANNELS 3 Zrotation Yrotation Xrotation
									JOINT RightHandIndex1
									{
										OFFSET -0.622530 -0.000000 -0.000000
										CHANNELS 3 Zrotation Yrotation Xrotation
										End Site
										{
											OFFSET 0.000000 0.000000 0.000000
										}
									}
								}
								JOINT RThumb
								{
									OFFSET 0.000000 0.000000 0.000000
									CHANNELS 3 Zrotation Yrotation Xrotation
									End Site
									{
										OFFSET 0.000000 0.000000 0.000000
									}
								}
							}
						}
					}
				}
			}
		}
	}
}
MOTION
Frames: 12
Frame Time: 0.008333
-1.365129 19.495828 -0.941450 -171.313095 7.799337 -165.734578 1.974289 -0.750323 -0.263999 -12.639131 -11.917268 -30.529783 0.946545 12.136211 31.415209 -3.066556 13.840829 -17.993006 7.420900 15.676400 50.449000 -3.577434 -0.538880 -0.762009 19.103719 -56.606124 -68.727781 -29.085613 -16.531495 115.988235 23.267990 -58.995693 -7.866257 -10.010900 -17.416000 59.524800 8.246024 4.626003 -8.279532 1.090766 6.864480 -7.080090 -0.404460 4.017553 -4.244555 -2.210149 0.608936 -14.044751 6.028066 -1.870926 15.285066 0.752200 -1.895400 12.100000 -8.559983 -6.694205 3.646521 7.009715 13.383251 48.412828 33.161022 -38.212673 -16.387596 4.912214 -4.839564 40.546562 44.165627 -1.448283 -0.698900 -7.125000 0.000000 0.000000 8.333100 28.784100 -3.323100 9.630572 7.616234 4.916313 -5.149371 -25.287437 46.329063 -32.719656 38.981199 -16.617923 -3.232540 6.207460 14.831333 -51.615040 45.847878 -36.260600 7.125000 0.000000 0.000000 -3.930900 24.211200 -5.205900 
-1.388413 19.528043 -1.102629 -171.083453 7.325883 -165.539467 1.825562 -0.812063 -0.215028 -12.554039 -11.753161 -30.334380 0.935346 12.038781 31.208619 -3.832295 15.816938 -17.766931 7.199800 15.497900 49.626200 -3.234274 -0.303852 -0.942675 19.363538 -59.576772 -71.094123 -29.621909 -15.916281 118.365011 23.997711 -59.604536 -8.691068 -10.130700 -17.482700 59.924300 8.710089 4.596729 -8.708489 1.101993 6.851268 -7.112533 -0.574022 4.000500 -4.084845 -2.147664 0.592518 -14.039137 6.072108 -1.902787 15.331727 0.790100 -1.904900 12.116600 -8.591485 -6.592071 3.635774 6.569920 14.004155 47.728390 31.065247 -36.744453 -14.627858 4.822869 -4.355611 40.815871 43.197294 0.433850 0.510900 -7.125000 0.000000 0.000000 8.039700 30.777800 -2.818000 9.628527 7.497959 4.872536 -4.554022 -26.503825 43.966250 -30.614570 37.454554 -15.069208 -3.089664 5.936549 14.714977 -50.479429 46.262684 -35.654900 7.125000 0.000000 0.000000 -3.295100 24.300700 -4.364200 
-1.404360 19.561852 -1.245627 -170.908495 6.962354 -165.376994 1.668491 -0.871923 -0.156838 -12.447837 -11.606149 -30.140573 0.922525 11.942208 31.000188 -4.350324 17.136284 -17.582732 7.018300 15.347300 48.943500 -2.872173 -0.063287 -1.102545 20.132906 -62.290700 -74.049785 -30.132884 -15.292100 120.704166 24.687339 -60.560383 -7.938115 -10.151200 -17.494000 59.992600 9.031703 4.510070 -8.846775 1.117059 6.826678 -7.191790 -0.713894 3.980818 -4.226284 -2.157724 0.687222 -14.050788 6.164266 -1.806919 15.517139 0.873900 -1.885700 12.258300 -8.625564 -6.534405 3.606093 6.159584 14.736839 46.962211 28.959549 -35.185617 -13.039316 4.605554 -4.095573 40.868546 42.154592 0.216470 0.254500 -7.125000 0.000000 0.000000 7.448000 30.367400 -2.681100 9.624704 7.431941 4.825619 -4.081428 -27.591287 41.847752 -28.553916 35.808809 -13.600607 -2.959676 5.679720 14.895664 -49.926532 46.505139 -35.504300 7.125000 0.000000 0.000000 -2.952900 24.533200 -3.916100 
-1.414567 19.595555 -1.372465 -170.689388 6.516455 -165.166246 1.512341 -0.940602 -0.089838 -12.214396 -11.496441 -30.008107 0.875333 11.838845 30.796546 -4.208544 16.796621 -17.889018 7.118600 15.430900 49.321400 -2.533904 0.181832 -1.276783 21.681603 -64.817372 -77.455868 -30.567352 -14.680384 122.829578 24.882436 -62.012929 -3.847090 -9.976700 -17.396700 59.410400 9.297974 4.356871 -8.769623 1.170861 6.761712 -7.299603 -0.761878 3.959289 -4.670139 -1.917545 0.679534 -13.671748 6.061351 -1.921178 15.450784 0.747500 -1.928700 12.141100 -8.651809 -6.517509 3.598117 5.614483 15.475645 45.826667 26.987134 -33.625500 -11.677655 4.382262 -3.944689 41.412867 41.664561 -0.518906 -0.355600 -7.125000 0.000000 0.000000 7.194300 29.336500 -2.766700 9.656188 7.396959 4.785527 -3.835504 -28.510938 39.936353 -26.531476 34.060236 -12.218958 -2.815698 5.405966 15.175532 -48.669062 46.627939 -34.622900 7.125000 0.000000 0.000000 -2.372900 24.292900 -3.140800 
-1.427325 19.624899 -1.510998 -170.490678 6.044904 -165.014402 1.343676 -1.015757 -0.008389 -12.011853 -11.465460 -29.783442 0.863141 11.739878 30.611580 -4.535056 17.630962 -17.852849 6.996600 15.329000 48.861400 -2.179061 0.453880 -1.566646 23.039457 -67.873683 -80.628883 -30.943175 -14.034029 124.828941 24.046552 -63.301694 1.991315 -9.772400 -17.279900 58.724900 9.581100 4.169402 -8.857202 1.249835 6.562019 -7.345768 -0.746043 3.868226 -4.658011 -1.809017 0.728164 -13.978805 6.027382 -1.857765 15.532744 0.691900 -1.883300 12.293100 -8.676071 -6.471473 3.597398 4.917526 16.304605 44.112641 25.122632 -32.033463 -10.452022 4.183650 -3.773065 42.538655 41.324215 -0.679942 -0.588100 -7.125000 0.000000 0.000000 7.102300 28.940300 -2.798200 9.688921 7.342886 4.739981 -3.697010 -28.909853 38.060449 -24.466926 32.099493 -10.825609 -2.787594 5.077525 15.379232 -48.810274 45.845017 -34.606800 7.125000 0.000000 0.000000 -2.696700 23.900200 -3.560900 
-1.452948 19.646694 -1.668456 -170.484039 5.604522 -165.061850 1.151628 -1.082173 0.098677 -12.209947 -11.330098 -29.352024 0.867333 11.646425 30.503351 -4.832773 18.358299 -17.661413 6.879900 15.229900 48.418500 -1.788552 0.734927 -1.958131 23.482770 -71.467435 -83.271852 -31.256025 -13.383207 126.717427 22.983422 -64.483944 7.136303 -9.695700 -17.235100 58.466400 9.855945 4.019280 -9.066199 1.323809 6.314037 -7.301726 -0.750729 3.739545 -4.223910 -1.813054 0.844056 -14.483603 5.950491 -1.618459 15.599797 0.640800 -1.761400 12.448800 -8.696123 -6.407158 3.606327 4.077035 17.034505 41.768099 23.285238 -30.394218 -9.318786 3.935142 -3.640782 43.921220 40.484874 -1.224094 -1.044000 -7.125000 0.000000 0.000000 6.604100 28.142700 -2.725000 9.717507 7.242833 4.695236 -3.706236 -28.936723 35.959225 -22.359141 30.026289 -9.536040 -2.681580 4.785451 15.577643 -48.288160 45.720897 -34.306300 7.125000 0.000000 0.000000 -2.519000 23.793300 -3.323400 
-1.468152 19.662961 -1.795187 -170.296154 4.959464 -164.892282 1.016070 -1.129550 0.209467 -12.102280 -11.183775 -29.325097 0.874416 11.573963 30.364552 -5.135353 19.049474 -17.288958 6.793600 15.155600 48.089400 -1.479144 0.966536 -2.307778 25.923437 -74.497261 -87.388562 -31.569433 -12.857033 128.519019 21.911942 -65.363434 11.193304 -9.600800 -17.179200 58.145600 10.276039 3.890860 -9.211210 1.332937 6.264969 -7.394679 -1.022106 3.703207 -4.487941 -1.593400 0.844376 -14.070799 5.888668 -1.711430 15.546888 0.561200 -1.795200 12.297400 -8.733135 -6.400563 3.590740 3.770789 17.328956 40.038907 21.584243 -28.752585 -8.292204 3.701269 -3.500447 45.118693 39.495954 -1.755769 -1.442400 -7.125000 0.000000 0.000000 5.996700 27.411800 -2.575700 9.737502 7.205352 4.688334 -3.487330 -29.462394 33.903244 -20.436561 27.984078 -8.448164 -2.551416 4.511233 16.246144 -47.325710 45.540889 -33.559300 7.125000 0.000000 0.000000 -2.164200 23.425100 -2.847700 
-1.471235 19.678696 -1.912350 -169.998464 4.590177 -164.599453 0.903832 -1.170670 0.306366 -11.727514 -11.242890 -29.305860 0.829686 11.493125 30.207732 -4.803622 18.195651 -17.559184 6.993300 15.326200 48.848900 -1.225541 1.141194 -2.616551 29.592612 -76.582766 -92.260133 -31.940807 -12.455428 130.232947 19.944020 -65.627539 15.960822 -9.453600 -17.090900 57.646000 10.610377 3.831199 -9.246538 1.359584 6.290979 -7.483621 -1.113389 3.715736 -4.667835 -1.489596 0.770796 -14.251350 5.866864 -1.859508 15.639179 0.526500 -1.852500 12.435900 -8.778819 -6.416401 3.570512 3.507104 17.419097 38.089198 19.857678 -26.953870 -7.301131 3.488016 -3.314336 46.047769 38.533792 -2.184931 -1.753000 -7.125000 0.000000 0.000000 5.437700 26.811700 -2.410500 9.783066 7.208930 4.685619 -3.134295 -29.653905 30.951493 -18.417531 25.675697 -7.382283 -2.403857 4.216728 17.726787 -46.678880 44.948676 -32.932300 7.125000 0.000000 0.000000 -2.076600 22.862100 -2.721600 
-1.467407 19.689966 -2.027599 -170.241038 4.528196 -164.420689 0.759802 -1.205289 0.413331 -11.991036 -11.021309 -29.338719 0.823408 11.438785 30.093122 -5.106096 18.955245 -17.387582 6.896900 15.244400 48.483300 -0.866960 1.307756 -2.906982 32.790132 -78.898321 -97.743560 -32.333238 -12.045747 132.151498 19.929149 -66.166721 16.752505 -9.603800 -17.180900 58.155700 10.256605 3.718921 -9.176322 1.351961 6.289754 -7.583808 -1.073099 3.732673 -5.004606 -1.286734 0.741361 -14.192939 5.800266 -2.009448 15.704211 0.417500 -1.907900 12.496300 -8.814730 -6.416382 3.563474 3.339086 17.709357 36.023705 18.312660 -25.239033 -6.463239 3.311796 -3.107202 46.790419 37.643325 -2.326743 -1.863000 -7.125000 0.000000 0.000000 4.952600 26.560800 -2.223100 9.827240 7.226005 4.690696 -2.872717 -29.679559 27.853550 -16.605986 23.497753 -6.507026 -2.242574 3.961284 19.570279 -45.942354 44.462914 -32.261600 7.125000 0.000000 0.000000 -1.910100 22.338500 -2.493800 
-1.465281 19.695813 -2.143274 -170.458862 4.255621 -164.337705 0.632193 -1.227385 0.516998 -12.297482 -10.683878 -29.377756 0.856903 11.392803 29.977723 -5.815776 20.700594 -16.773067 6.654600 15.034000 47.555700 -0.582746 1.424585 -3.284564 36.710185 -81.606784 -103.629515 -32.668999 -11.708045 133.861696 20.773402 -66.991246 16.188144 -9.853600 -17.326700 58.998000 10.007380 3.568430 -9.321114 1.384605 6.106837 -7.594447 -0.939803 3.667886 -4.874491 -1.320900 0.790132 -14.389097 5.793262 -1.938620 15.803926 0.399400 -1.878500 12.611000 -8.823185 -6.362257 3.564111 3.112048 18.143300 33.678368 17.122737 -23.871566 -5.849504 3.162261 -2.929682 47.240875 36.607188 -2.441911 -1.908100 -7.125000 0.000000 0.000000 4.333400 26.402900 -1.959700 9.848591 7.178584 4.683581 -3.040127 -29.404279 25.256374 -15.063274 21.595573 -5.800568 -2.128892 3.685975 20.422734 -43.926488 44.048057 -30.452100 7.125000 0.000000 0.000000 -1.184000 21.237100 -1.532800 
-1.481229 19.697727 -2.267879 -170.375634 3.627540 -164.425572 0.509564 -1.191526 0.670464 -12.418163 -10.267476 -29.288333 0.962573 11.361057 29.882291 -6.869441 23.195325 -15.372018 6.202500 14.621800 45.789300 -0.368086 1.455682 -3.848166 43.438770 -84.516299 -111.286056 -33.055760 -11.540830 135.023698 16.919228 -66.832639 23.755713 -9.756900 -17.270900 58.672700 10.308902 3.454432 -9.256716 1.414726 5.939938 -7.574914 -1.049556 3.561066 -4.568894 -1.474875 0.713434 -15.119176 5.849211 -1.951229 15.952589 0.478000 -1.877400 12.924200 -8.855909 -6.333200 3.556376 2.996080 18.056494 31.196357 15.966751 -22.475174 -5.247640 3.047105 -2.702149 47.203982 35.656623 -2.177983 -1.725800 -7.125000 0.000000 0.000000 3.812600 26.680700 -1.698200 9.854442 7.134591 4.684533 -3.313435 -29.066878 22.545108 -13.514727 19.601156 -5.125202 -2.048953 3.348486 21.309700 -41.629121 43.001779 -28.171100 7.125000 0.000000 0.000000 -0.517800 19.460300 -0.660700 
-1.492499 19.695069 -2.389933 -170.479970 3.135468 -164.470005 0.354666 -1.094540 0.887052 -12.680004 -9.829134 -29.315526 1.049198 11.359236 29.818397 -7.536260 24.713928 -13.960450 5.924900 14.355200 44.679700 -0.043743 1.286444 -4.493093 54.269801 -86.702747 -123.252718 -33.614407 -11.486118 136.158753 11.237969 -65.284047 33.245037 -9.332800 -17.017100 57.233900 10.341909 3.279816 -9.155789 1.455141 5.778343 -7.620320 -1.014315 3.508230 -4.663794 -1.669364 0.688148 -15.193261 5.876203 -1.958975 16.030225 0.541700 -1.915500 13.003900 -8.893872 -6.321236 3.560562 2.981691 17.876990 29.058431 14.696557 -20.907264 -4.628760 2.949785 -2.427330 46.871681 35.153471 -1.625414 -1.419300 -7.125000 0.000000 0.000000 3.660300 27.247000 -1.581400 9.864657 7.118347 4.688958 -3.869837 -28.798833 19.884787 -12.069058 17.666813 -4.528886 -1.955350 3.050074 23.359866 -41.008210 41.538186 -27.185500 7.125000 0.000000 0.000000 -0.699100 18.023800 -0.881100 
